<mxfile host="app.diagrams.net" modified="2024-05-28T23:38:36.442Z" agent="Mozilla/5.0 (Windows NT 10.0; Win64; x64) AppleWebKit/537.36 (KHTML, like Gecko) Chrome/125.0.0.0 Safari/537.36" etag="Ix-AgIxUIlliGKFooYbz" version="24.4.9" type="github">
  <diagram name="PÃ¡gina-1" id="QuJdyDnnlSnmPdB59UmY">
    <mxGraphModel dx="693" dy="597" grid="1" gridSize="10" guides="1" tooltips="1" connect="1" arrows="1" fold="1" page="1" pageScale="1" pageWidth="827" pageHeight="1169" math="0" shadow="0">
      <root>
        <mxCell id="0" />
        <mxCell id="1" parent="0" />
        <mxCell id="73t6amCPzOeh0HLC77lx-5" value="" style="edgeStyle=orthogonalEdgeStyle;rounded=0;orthogonalLoop=1;jettySize=auto;html=1;" edge="1" parent="1" source="73t6amCPzOeh0HLC77lx-1" target="73t6amCPzOeh0HLC77lx-4">
          <mxGeometry relative="1" as="geometry" />
        </mxCell>
        <mxCell id="73t6amCPzOeh0HLC77lx-1" value="Inicio" style="ellipse;whiteSpace=wrap;html=1;" vertex="1" parent="1">
          <mxGeometry x="354" y="40" width="120" height="80" as="geometry" />
        </mxCell>
        <mxCell id="73t6amCPzOeh0HLC77lx-7" value="" style="edgeStyle=orthogonalEdgeStyle;rounded=0;orthogonalLoop=1;jettySize=auto;html=1;" edge="1" parent="1" source="73t6amCPzOeh0HLC77lx-4" target="73t6amCPzOeh0HLC77lx-6">
          <mxGeometry relative="1" as="geometry" />
        </mxCell>
        <mxCell id="73t6amCPzOeh0HLC77lx-4" value="string s1, string s2, string s3, string s4, string s5" style="shape=parallelogram;perimeter=parallelogramPerimeter;whiteSpace=wrap;html=1;fixedSize=1;" vertex="1" parent="1">
          <mxGeometry x="277" y="150" width="274" height="60" as="geometry" />
        </mxCell>
        <mxCell id="73t6amCPzOeh0HLC77lx-9" value="" style="edgeStyle=orthogonalEdgeStyle;rounded=0;orthogonalLoop=1;jettySize=auto;html=1;" edge="1" parent="1" source="73t6amCPzOeh0HLC77lx-6" target="73t6amCPzOeh0HLC77lx-8">
          <mxGeometry relative="1" as="geometry" />
        </mxCell>
        <mxCell id="73t6amCPzOeh0HLC77lx-11" value="" style="edgeStyle=orthogonalEdgeStyle;rounded=0;orthogonalLoop=1;jettySize=auto;html=1;" edge="1" parent="1" source="73t6amCPzOeh0HLC77lx-6" target="73t6amCPzOeh0HLC77lx-10">
          <mxGeometry relative="1" as="geometry" />
        </mxCell>
        <mxCell id="73t6amCPzOeh0HLC77lx-13" value="" style="edgeStyle=orthogonalEdgeStyle;rounded=0;orthogonalLoop=1;jettySize=auto;html=1;" edge="1" parent="1" source="73t6amCPzOeh0HLC77lx-6" target="73t6amCPzOeh0HLC77lx-12">
          <mxGeometry relative="1" as="geometry" />
        </mxCell>
        <mxCell id="73t6amCPzOeh0HLC77lx-14" value="" style="edgeStyle=orthogonalEdgeStyle;rounded=0;orthogonalLoop=1;jettySize=auto;html=1;" edge="1" parent="1" source="73t6amCPzOeh0HLC77lx-6" target="73t6amCPzOeh0HLC77lx-12">
          <mxGeometry relative="1" as="geometry" />
        </mxCell>
        <mxCell id="73t6amCPzOeh0HLC77lx-17" value="" style="edgeStyle=orthogonalEdgeStyle;rounded=0;orthogonalLoop=1;jettySize=auto;html=1;" edge="1" parent="1" source="73t6amCPzOeh0HLC77lx-6" target="73t6amCPzOeh0HLC77lx-16">
          <mxGeometry relative="1" as="geometry" />
        </mxCell>
        <mxCell id="73t6amCPzOeh0HLC77lx-19" value="" style="edgeStyle=orthogonalEdgeStyle;rounded=0;orthogonalLoop=1;jettySize=auto;html=1;" edge="1" parent="1" source="73t6amCPzOeh0HLC77lx-6" target="73t6amCPzOeh0HLC77lx-18">
          <mxGeometry relative="1" as="geometry" />
        </mxCell>
        <mxCell id="73t6amCPzOeh0HLC77lx-6" value="string S1, S2, S3, S4, S5" style="shape=parallelogram;perimeter=parallelogramPerimeter;whiteSpace=wrap;html=1;fixedSize=1;" vertex="1" parent="1">
          <mxGeometry x="300" y="230" width="228" height="60" as="geometry" />
        </mxCell>
        <mxCell id="73t6amCPzOeh0HLC77lx-21" value="" style="edgeStyle=orthogonalEdgeStyle;rounded=0;orthogonalLoop=1;jettySize=auto;html=1;" edge="1" parent="1" source="73t6amCPzOeh0HLC77lx-8" target="73t6amCPzOeh0HLC77lx-20">
          <mxGeometry relative="1" as="geometry" />
        </mxCell>
        <mxCell id="73t6amCPzOeh0HLC77lx-8" value="S1 = s1[0]" style="whiteSpace=wrap;html=1;" vertex="1" parent="1">
          <mxGeometry x="251" y="330" width="60" height="60" as="geometry" />
        </mxCell>
        <mxCell id="73t6amCPzOeh0HLC77lx-22" value="" style="edgeStyle=orthogonalEdgeStyle;rounded=0;orthogonalLoop=1;jettySize=auto;html=1;" edge="1" parent="1" source="73t6amCPzOeh0HLC77lx-10" target="73t6amCPzOeh0HLC77lx-20">
          <mxGeometry relative="1" as="geometry" />
        </mxCell>
        <mxCell id="73t6amCPzOeh0HLC77lx-10" value="S2 = s2[0]" style="whiteSpace=wrap;html=1;" vertex="1" parent="1">
          <mxGeometry x="317" y="330" width="60" height="60" as="geometry" />
        </mxCell>
        <mxCell id="73t6amCPzOeh0HLC77lx-23" value="" style="edgeStyle=orthogonalEdgeStyle;rounded=0;orthogonalLoop=1;jettySize=auto;html=1;" edge="1" parent="1" source="73t6amCPzOeh0HLC77lx-12" target="73t6amCPzOeh0HLC77lx-20">
          <mxGeometry relative="1" as="geometry" />
        </mxCell>
        <mxCell id="73t6amCPzOeh0HLC77lx-12" value="S3 = s3[0]" style="whiteSpace=wrap;html=1;" vertex="1" parent="1">
          <mxGeometry x="387" y="330" width="60" height="60" as="geometry" />
        </mxCell>
        <mxCell id="73t6amCPzOeh0HLC77lx-24" value="" style="edgeStyle=orthogonalEdgeStyle;rounded=0;orthogonalLoop=1;jettySize=auto;html=1;" edge="1" parent="1" source="73t6amCPzOeh0HLC77lx-16" target="73t6amCPzOeh0HLC77lx-20">
          <mxGeometry relative="1" as="geometry" />
        </mxCell>
        <mxCell id="73t6amCPzOeh0HLC77lx-16" value="S4 = s4[0]" style="whiteSpace=wrap;html=1;" vertex="1" parent="1">
          <mxGeometry x="453" y="330" width="60" height="60" as="geometry" />
        </mxCell>
        <mxCell id="73t6amCPzOeh0HLC77lx-25" value="" style="edgeStyle=orthogonalEdgeStyle;rounded=0;orthogonalLoop=1;jettySize=auto;html=1;" edge="1" parent="1" source="73t6amCPzOeh0HLC77lx-18" target="73t6amCPzOeh0HLC77lx-20">
          <mxGeometry relative="1" as="geometry" />
        </mxCell>
        <mxCell id="73t6amCPzOeh0HLC77lx-18" value="S5 = s5[0]" style="whiteSpace=wrap;html=1;" vertex="1" parent="1">
          <mxGeometry x="517" y="330" width="60" height="60" as="geometry" />
        </mxCell>
        <mxCell id="73t6amCPzOeh0HLC77lx-27" value="" style="edgeStyle=orthogonalEdgeStyle;rounded=0;orthogonalLoop=1;jettySize=auto;html=1;" edge="1" parent="1" source="73t6amCPzOeh0HLC77lx-20" target="73t6amCPzOeh0HLC77lx-26">
          <mxGeometry relative="1" as="geometry" />
        </mxCell>
        <mxCell id="73t6amCPzOeh0HLC77lx-20" value="cout &amp;lt;&amp;lt; S1 + S2 + S3 + S4 + S5 &amp;lt;&amp;lt; endl;" style="whiteSpace=wrap;html=1;" vertex="1" parent="1">
          <mxGeometry x="302.5" y="440" width="229" height="60" as="geometry" />
        </mxCell>
        <mxCell id="73t6amCPzOeh0HLC77lx-31" value="" style="edgeStyle=orthogonalEdgeStyle;rounded=0;orthogonalLoop=1;jettySize=auto;html=1;" edge="1" parent="1" source="73t6amCPzOeh0HLC77lx-26" target="73t6amCPzOeh0HLC77lx-30">
          <mxGeometry relative="1" as="geometry" />
        </mxCell>
        <mxCell id="73t6amCPzOeh0HLC77lx-33" value="" style="edgeStyle=orthogonalEdgeStyle;rounded=0;orthogonalLoop=1;jettySize=auto;html=1;" edge="1" parent="1" source="73t6amCPzOeh0HLC77lx-26" target="73t6amCPzOeh0HLC77lx-32">
          <mxGeometry relative="1" as="geometry" />
        </mxCell>
        <mxCell id="73t6amCPzOeh0HLC77lx-26" value="S1 == S5" style="rhombus;whiteSpace=wrap;html=1;" vertex="1" parent="1">
          <mxGeometry x="377" y="520" width="80" height="80" as="geometry" />
        </mxCell>
        <mxCell id="73t6amCPzOeh0HLC77lx-28" value="Si" style="text;html=1;align=center;verticalAlign=middle;resizable=0;points=[];autosize=1;strokeColor=none;fillColor=none;" vertex="1" parent="1">
          <mxGeometry x="445" y="528" width="30" height="30" as="geometry" />
        </mxCell>
        <mxCell id="73t6amCPzOeh0HLC77lx-29" value="No" style="text;html=1;align=center;verticalAlign=middle;resizable=0;points=[];autosize=1;strokeColor=none;fillColor=none;" vertex="1" parent="1">
          <mxGeometry x="360" y="528" width="40" height="30" as="geometry" />
        </mxCell>
        <mxCell id="73t6amCPzOeh0HLC77lx-30" value="return &quot;Hemos encontrado algo!&quot;" style="whiteSpace=wrap;html=1;" vertex="1" parent="1">
          <mxGeometry x="531.5" y="530" width="120" height="60" as="geometry" />
        </mxCell>
        <mxCell id="73t6amCPzOeh0HLC77lx-32" value="return &quot;Aun sin suerte&quot;" style="whiteSpace=wrap;html=1;" vertex="1" parent="1">
          <mxGeometry x="197" y="530" width="120" height="60" as="geometry" />
        </mxCell>
      </root>
    </mxGraphModel>
  </diagram>
</mxfile>
